<?xml version="1.0" encoding="UTF-8"?>
<svg width="512" height="512" viewBox="0 0 512 512" fill="none" xmlns="http://www.w3.org/2000/svg">
  <!-- Chess Knight Logo -->
  <circle cx="256" cy="256" r="256" fill="#2196F3"/>
  <path d="M160 352V160C160 149.333 163.333 140 170 132C176.667 124 185 120 195 120H317C327 120 335.333 124 342 132C348.667 140 352 149.333 352 160V352C352 362.667 348.667 372 342 380C335.333 388 327 392 317 392H195C185 392 176.667 388 170 380C163.333 372 160 362.667 160 352Z" fill="white"/>
  <path d="M220 180C220 171.333 222.667 164 228 158C233.333 152 240 149 248 149H264C272 149 278.667 152 284 158C289.333 164 292 171.333 292 180V200H220V180Z" fill="#2196F3"/>
  <path d="M220 240H292V280H220V240Z" fill="#2196F3"/>
  <path d="M220 320H292V340C292 348.667 289.333 356 284 362C278.667 368 272 371 264 371H248C240 371 233.333 368 228 362C222.667 356 220 348.667 220 340V320Z" fill="#2196F3"/>
</svg> 